<!DOCTYPE svg PUBLIC "-//W3C//DTD SVG 1.1//EN" "http://www.w3.org/Graphics/SVG/1.1/DTD/svg11.dtd">

<!-- Uploaded to: SVG Repo, www.svgrepo.com, Transformed by: SVG Repo Mixer Tools -->
<svg width="64px" height="64px" viewBox="-2.4 -2.4 28.80 28.80" fill="none" xmlns="http://www.w3.org/2000/svg" stroke="#ae7b2d" transform="matrix(1, 0, 0, 1, 0, 0)rotate(0)">

<g id="SVGRepo_bgCarrier" stroke-width="0" transform="translate(0,0), scale(1)">

<path transform="translate(-2.4, -2.4), scale(0.8999999999999999)" d="M16,25.113929669715855C19.47116704640439,24.900288534089274,23.04641529631115,27.83773507179495,25.997174546061572,25.997174546061576C29.234452428991304,23.97789564939993,30.635783150332152,19.81534490368234,30.611316443273896,16C30.586985240766776,12.205785712602193,28.460394517133217,8.902470500631331,25.869773534853348,6.130226465146654C23.165365320103398,3.23621781079755,19.858585938065346,-0.5303499035193853,16.000000000000004,0.3643145263195038C12.184274312382467,1.2490412374849904,12.120927849966604,6.657289829636751,9.84563576562154,9.845635765621537C8.249055909193396,12.082908479635796,5.619984400093202,13.363884442666551,4.841941211568681,15.999999999999998C3.7325731468190773,19.75868905149237,1.6563411545680453,24.82934071092364,4.691518786500275,27.308481213499718C7.783047481796736,29.833649402257894,12.01579461649404,25.35914695581088,16,25.113929669715855" fill="#697565" strokewidth="0"/>

</g>

<g id="SVGRepo_tracerCarrier" stroke-linecap="round" stroke-linejoin="round" stroke="#dd2c2c" stroke-width="0.24000000000000005"/>

<g id="SVGRepo_iconCarrier"> <path d="M4 6H20M4 12H20M4 18H20" stroke="#ECDFCC" stroke-width="1.6799999999999997" stroke-linecap="round" stroke-linejoin="round"/> </g>

</svg>